<svg version="1" xmlns="http://www.w3.org/2000/svg" width="933.333" height="933.333" viewBox="0 0 700.000000 700.000000"><path d="M217 152.1c-14.3 1.2-38.2 5.2-38.7 6.4-.3 1 6.4 43.6 7 44.1.1.1 4.8-.9 10.5-2.1 18.9-4.3 25.1-4.7 76.5-5.2l49.7-.5V513h-50.7c-50.9 0-61.1-.6-76-4.1-17.7-4.1-38.2-13.3-51.3-22.9-10.7-7.9-22.9-20.4-29.9-30.7l-5.5-8-17 8c-9.4 4.4-20.4 9.4-24.4 11.3l-7.3 3.3 3.8 6c24.3 38.1 64.7 65.1 113.9 76 23.5 5.2 24.5 5.3 173.4 5.3 121.2 0 140.1-.2 151.4-1.6 46.6-5.9 83.3-22.6 112.5-51.4 16.8-16.5 28.4-33.7 38.8-57.2 12.3-28 17-51.5 18-89.5.8-33-2.1-57.1-9.8-81.2-23.8-74.2-84.6-116.6-178.2-124.3-15.1-1.2-252-1.2-266.7.1zm260.3 44C545 202 588.1 231.7 607 285.4c14.4 40.7 12.8 101.1-3.7 141.1-10.2 24.9-25.2 44.5-45 59.3-13.2 9.7-33.9 19-51.6 23.1-14.9 3.5-25.1 4.1-75.9 4.1H380V195h42.6c23.4 0 48 .5 54.7 1.1z"/></svg>